# 3ds Max Wavefront OBJ Exporter v0.99 - (c)2007 guruware
# File Created: 20.02.2023 17:28:50

mtllib Br Bloemen Hall.mtl

#
# object Br_Bloemen_Hall
#

v  -42.9350 16.7622 34.1369
v  -21.4675 16.7622 34.1369
v  -21.4675 16.7622 -0.0000
v  -42.9350 16.7622 -0.0000
v  -42.9350 12.1914 34.1369
v  -21.4675 12.1914 34.1369
v  42.9350 12.1914 34.1369
v  42.9350 12.1914 -0.0000
v  42.9350 16.7622 -0.0000
v  42.9350 16.7622 34.1369
v  42.9350 12.1914 -34.1369
v  21.4675 12.1914 -34.1369
v  21.4675 16.7622 -34.1369
v  42.9350 16.7622 -34.1369
v  -42.9350 12.1914 -34.1369
v  -42.9350 12.1914 -13.4567
v  -42.9350 16.7622 -13.4567
v  -42.9350 16.7622 -34.1369
v  -42.9350 12.1914 -0.0000
v  -35.7115 12.1914 -0.0000
v  -35.7115 12.1914 26.9133
v  42.9350 12.1914 -13.4567
v  35.7115 12.1914 -13.4567
v  35.7115 12.1914 -26.9133
v  21.4675 12.1914 34.1369
v  17.8558 12.1914 26.9133
v  35.7115 12.1914 26.9133
v  -35.7115 6.0071 -0.0000
v  -35.7115 6.0071 26.9133
v  17.8558 6.0071 26.9133
v  35.7115 6.0071 26.9133
v  35.7115 -0.1772 26.9133
v  35.7115 -0.1772 -0.0000
v  35.7115 6.0071 -0.0000
v  -35.7115 -0.1772 26.9133
v  -17.8558 -0.1772 26.9133
v  -17.8558 6.0071 26.9133
v  0.0000 16.7622 34.1369
v  21.4675 16.7622 34.1369
v  21.4675 16.7622 -0.0000
v  0.0000 16.7622 -0.0000
v  0.0000 12.1914 34.1369
v  -21.4675 16.7622 -34.1369
v  0.0000 12.1914 -34.1369
v  17.8905 12.1914 -26.9133
v  -0.0000 12.1914 -26.9133
v  -17.8558 12.1914 26.9133
v  0.0000 12.1914 26.9133
v  0.0000 6.0071 26.9133
v  0.0000 16.7622 -34.1369
v  17.8558 -0.1772 26.9133
v  -17.8558 6.0071 25.5677
v  0.0000 6.0071 -0.0000
v  17.8760 6.0071 -0.0000
v  17.8558 -0.1772 0.0082
v  -21.4675 16.7622 -13.4567
v  42.9350 16.7622 -13.4567
v  -35.7115 12.1914 -13.4567
v  35.7115 12.1914 -0.0000
v  -35.7115 -0.1772 -0.0000
v  21.4675 16.7622 -13.4567
v  0.0000 16.7622 -13.4567
v  -34.7713 6.0071 -0.0000
v  -34.7713 12.1914 -0.0000
v  0.0000 12.1914 -0.0000
v  34.2046 6.0071 -0.0000
v  34.2046 12.1914 -0.0000
v  -34.7713 12.1914 -13.4567
v  0.0000 12.1914 -13.4567
v  34.2046 12.1914 -13.4567
v  -35.7115 12.1914 -26.9133
v  -34.7713 12.1914 -25.4331
v  -23.8147 12.1914 -25.4331
v  -11.9269 12.1914 -25.4331
v  0.0000 12.1914 -25.4331
v  17.8721 12.1914 -25.4331
v  -17.8558 -0.1772 25.5677
v  -34.7720 -0.1772 25.5677
v  -34.7720 6.0071 25.5677
v  -34.7713 -0.1772 -0.0000
v  34.2046 -0.1772 -0.0000
v  17.8905 6.0071 -26.9133
v  -0.0090 6.0071 -26.9133
v  17.8905 -0.1772 -26.9133
v  -0.0181 -0.1772 -26.9133
v  0.0012 -0.1772 -25.4331
v  17.8742 -0.1772 -25.4331
v  17.8742 6.0071 -25.4331
v  -0.0003 6.0071 -25.4331
v  -11.9038 12.1914 -26.9133
v  -23.8077 12.1914 -26.9133
v  34.2046 12.1914 -25.4331
v  -35.7115 11.3789 -12.6441
v  -35.7115 11.3789 -0.8125
v  -35.7115 -0.1772 -13.4567
v  -35.7115 -0.1812 -12.6441
v  -35.7115 6.0071 -0.8125
v  -35.7115 -0.1812 -0.8125
v  -35.7115 11.3789 -14.2692
v  -35.7115 -0.1812 -14.2692
v  -35.7115 11.3789 -25.4263
v  -35.7115 -0.1772 -26.9133
v  -35.7115 -0.1813 -25.4263
v  34.2046 6.0071 -0.8125
v  34.2046 -0.1812 -0.8125
v  34.2046 11.3789 -0.8125
v  34.2046 11.3789 -12.6441
v  34.2046 -0.1772 -13.4567
v  34.2046 -0.1812 -12.6441
v  34.2046 11.3789 -14.2692
v  34.2046 -0.1812 -14.2692
v  34.2046 11.3789 -25.4324
v  35.7115 11.3789 -14.2692
v  35.7115 11.3789 -25.4204
v  35.7115 -0.1772 -13.4567
v  35.7115 -0.1812 -14.2692
v  35.7115 -0.1772 -26.9133
v  35.7115 -0.1812 -25.4204
v  35.7115 11.3789 -12.6441
v  35.7115 -0.1812 -12.6441
v  35.7115 11.3789 -0.8125
v  35.7115 6.0071 -0.8125
v  35.7115 -0.1812 -0.8125
v  34.2226 -0.1812 -26.9133
v  34.2226 11.3789 -26.9133
v  18.7030 6.0071 -26.9133
v  18.7030 -0.1812 -26.9133
v  18.7030 11.3789 -26.9133
v  18.6355 11.3789 -25.4331
v  18.7171 6.0133 -25.4331
v  18.7178 -0.1812 -25.4331
v  -24.6206 11.3789 -26.9133
v  -34.7470 11.3789 -26.9133
v  -23.8137 -0.1772 -26.9133
v  -24.6258 -0.1812 -26.9133
v  -34.7470 -0.1812 -26.9133
v  -11.9159 -0.1772 -26.9133
v  -11.0921 11.3789 -26.9133
v  -11.1026 -0.1812 -26.9133
v  -0.8137 11.3789 -26.9133
v  -0.8216 6.0083 -26.9133
v  -0.8294 -0.1812 -26.9133
v  -23.8143 -0.1772 -25.4331
v  -24.6272 11.3789 -25.4331
v  -24.6269 -0.1812 -25.4331
v  -34.7713 11.3789 -25.4324
v  -0.8129 6.0070 -25.4331
v  -0.8115 -0.1812 -25.4331
v  -0.8126 11.3789 -25.4331
v  -11.1144 11.3789 -25.4331
v  -11.9261 -0.1772 -25.4331
v  -11.1137 -0.1812 -25.4331
v  -22.9955 11.3789 -26.9133
v  -23.0008 -0.1812 -26.9133
v  -12.7172 11.3789 -26.9133
v  -12.7276 -0.1812 -26.9133
v  -12.7395 11.3789 -25.4331
v  -12.7388 -0.1812 -25.4331
v  -23.0022 11.3789 -25.4331
v  -23.0018 -0.1812 -25.4331
v  -34.7713 11.3789 -14.2692
v  -34.7713 -0.1772 -13.4567
v  -34.7713 -0.1812 -14.2692
v  -34.7713 11.3789 -12.6441
v  -34.7713 -0.1812 -12.6441
v  -34.7713 11.3789 -0.8125
v  -34.7713 6.0071 -0.8125
v  -34.7713 -0.1812 -0.8125
v  34.2046 -0.1812 -25.4324
v  -34.7713 -0.1815 -25.4324
# 170 vertices

vn 0.0000 1.0000 -0.0000
vn 0.0000 0.0000 1.0000
vn 1.0000 0.0000 -0.0000
vn 0.0000 0.0000 -1.0000
vn -1.0000 0.0000 -0.0000
vn 0.0000 -1.0000 -0.0000
vn -1.0000 0.0016 -0.0004
vn 1.0000 0.0000 0.0000
vn -0.0003 -0.0007 -1.0000
vn -0.0000 -1.0000 -0.0000
vn -1.0000 -0.0000 -0.0000
vn -1.0000 -0.0000 0.0000
vn -1.0000 0.0000 0.0000
vn -0.0000 0.0005 1.0000
vn 0.0000 0.0004 1.0000
vn -0.0000 0.0000 -1.0000
vn -0.0000 -0.0000 -1.0000
vn -1.0000 0.0002 -0.0026
vn -0.9999 0.0004 -0.0113
vn 1.0000 -0.0002 0.0026
vn -0.0000 -1.0000 0.0000
vn -1.0000 0.0008 0.0033
vn -1.0000 0.0005 0.0090
vn 0.9999 -0.0004 0.0113
vn 0.0000 -1.0000 0.0000
vn 1.0000 0.0001 -0.0098
vn 0.9998 0.0076 0.0180
vn -0.0000 0.0000 1.0000
vn 0.0000 -0.0000 -1.0000
vn -0.0079 -0.0000 1.0000
vn -0.9999 -0.0000 -0.0121
vn 0.0064 0.0000 1.0000
vn 0.9999 0.0000 0.0164
# 33 vertex normals

vt 0.0005 0.0005 0.0000
vt 0.1458 0.0005 0.0000
vt 0.1458 0.2315 0.0000
vt 0.0005 0.2315 0.0000
vt 0.0005 0.5017 0.0000
vt 0.1458 0.5017 0.0000
vt 0.1458 0.5326 0.0000
vt 0.0005 0.5326 0.0000
vt 0.7883 0.0005 0.0000
vt 0.7883 0.2315 0.0000
vt 0.7574 0.2315 0.0000
vt 0.7574 0.0005 0.0000
vt 0.0005 0.4659 0.0000
vt 0.1458 0.4659 0.0000
vt 0.1458 0.4968 0.0000
vt 0.0005 0.4968 0.0000
vt 0.7474 0.1181 0.0000
vt 0.7474 0.2581 0.0000
vt 0.7165 0.2581 0.0000
vt 0.7165 0.1181 0.0000
vt 0.0005 0.9995 0.0000
vt 0.0005 0.7685 0.0000
vt 0.0494 0.7685 0.0000
vt 0.0494 0.9506 0.0000
vt 0.5816 0.5375 0.0000
vt 0.5816 0.6774 0.0000
vt 0.5327 0.6774 0.0000
vt 0.5327 0.5864 0.0000
vt 0.5816 0.9995 0.0000
vt 0.4363 0.9995 0.0000
vt 0.4119 0.9506 0.0000
vt 0.5327 0.9506 0.0000
vt 0.4346 0.7609 0.0000
vt 0.2524 0.7609 0.0000
vt 0.2524 0.7191 0.0000
vt 0.4346 0.7191 0.0000
vt 0.5835 0.4838 0.0000
vt 0.5835 0.3630 0.0000
vt 0.6253 0.3630 0.0000
vt 0.6253 0.4838 0.0000
vt 0.0703 0.6349 0.0000
vt 0.0703 0.5930 0.0000
vt 0.2524 0.5930 0.0000
vt 0.2524 0.6349 0.0000
vt 0.6253 0.0005 0.0000
vt 0.6672 0.0005 0.0000
vt 0.6672 0.1213 0.0000
vt 0.6253 0.1213 0.0000
vt 0.2911 0.0005 0.0000
vt 0.4363 0.0005 0.0000
vt 0.4363 0.2315 0.0000
vt 0.2911 0.2315 0.0000
vt 0.2911 0.5017 0.0000
vt 0.4363 0.5017 0.0000
vt 0.4363 0.5326 0.0000
vt 0.2911 0.5326 0.0000
vt 0.5816 0.4659 0.0000
vt 0.5816 0.4968 0.0000
vt 0.4363 0.4968 0.0000
vt 0.2911 0.5375 0.0000
vt 0.4363 0.5375 0.0000
vt 0.4121 0.5864 0.0000
vt 0.2911 0.5864 0.0000
vt 0.2911 0.9995 0.0000
vt 0.1458 0.9995 0.0000
vt 0.1702 0.9506 0.0000
vt 0.2911 0.9506 0.0000
vt 0.5835 0.2422 0.0000
vt 0.5835 0.1213 0.0000
vt 0.6253 0.2422 0.0000
vt 0.2911 0.4659 0.0000
vt 0.2911 0.4968 0.0000
vt 0.5816 0.0005 0.0000
vt 0.5816 0.2315 0.0000
vt 0.5816 0.5017 0.0000
vt 0.5816 0.5326 0.0000
vt 0.5835 0.0005 0.0000
vt 0.6672 0.3630 0.0000
vt 0.6672 0.4838 0.0000
vt 0.3056 0.9436 0.0000
vt 0.1848 0.9436 0.0000
vt 0.1848 0.9345 0.0000
vt 0.3056 0.7615 0.0000
vt 0.4689 0.9436 0.0000
vt 0.4271 0.9436 0.0000
vt 0.4271 0.7615 0.0000
vt 0.4689 0.7615 0.0000
vt 0.1458 0.3226 0.0000
vt 0.0005 0.3226 0.0000
vt 0.7883 0.3226 0.0000
vt 0.7574 0.3226 0.0000
vt 0.7474 0.3491 0.0000
vt 0.7474 0.5802 0.0000
vt 0.7165 0.5802 0.0000
vt 0.7165 0.3491 0.0000
vt 0.0005 0.6774 0.0000
vt 0.0494 0.6774 0.0000
vt 0.5816 0.7685 0.0000
vt 0.5327 0.7685 0.0000
vt 0.2524 0.6767 0.0000
vt 0.0703 0.6767 0.0000
vt 0.2524 0.6772 0.0000
vt 0.4346 0.6772 0.0000
vt 0.4363 0.3226 0.0000
vt 0.2911 0.3226 0.0000
vt 0.5816 0.3226 0.0000
vt 0.7123 0.2320 0.0000
vt 0.7123 0.4673 0.0000
vt 0.6704 0.4673 0.0000
vt 0.6704 0.2320 0.0000
vt 0.7123 0.0005 0.0000
vt 0.7123 0.1110 0.0000
vt 0.6704 0.0005 0.0000
vt 0.9806 0.2371 0.0000
vt 0.9806 0.4724 0.0000
vt 0.8896 0.4724 0.0000
vt 0.8896 0.2371 0.0000
vt 0.9806 0.0056 0.0000
vt 0.8896 0.0056 0.0000
vt 0.1458 0.4625 0.0000
vt 0.0005 0.4625 0.0000
vt 0.7883 0.4625 0.0000
vt 0.7574 0.4625 0.0000
vt 0.0005 0.5375 0.0000
vt 0.0494 0.5864 0.0000
vt 0.4363 0.4625 0.0000
vt 0.2911 0.4625 0.0000
vt 0.5816 0.4625 0.0000
vt 0.8085 0.4724 0.0000
vt 0.8085 0.3982 0.0000
vt 0.8085 0.3178 0.0000
vt 0.8085 0.2371 0.0000
vt 0.8085 0.1161 0.0000
vt 0.0703 0.7615 0.0000
vt 0.4266 0.7615 0.0000
vt 0.4264 0.9436 0.0000
vt 0.5937 0.4954 0.0000
vt 0.5937 0.4863 0.0000
vt 0.6356 0.4863 0.0000
vt 0.6356 0.4954 0.0000
vt 0.5937 0.5538 0.0000
vt 0.5937 0.5119 0.0000
vt 0.7082 0.5119 0.0000
vt 0.7082 0.5538 0.0000
vt 0.7123 0.8673 0.0000
vt 0.6705 0.8673 0.0000
vt 0.6705 0.6942 0.0000
vt 0.7123 0.6942 0.0000
vt 0.7541 0.1111 0.0000
vt 0.7541 0.0005 0.0000
vt 0.0703 0.9345 0.0000
vt 0.5835 0.7382 0.0000
vt 0.5835 0.6172 0.0000
vt 0.6253 0.6172 0.0000
vt 0.6253 0.7383 0.0000
vt 0.6672 0.6172 0.0000
vt 0.6672 0.7384 0.0000
vt 0.8955 0.7076 0.0000
vt 0.8955 0.5866 0.0000
vt 0.9373 0.5866 0.0000
vt 0.9373 0.7076 0.0000
vt 0.9792 0.5866 0.0000
vt 0.9792 0.7076 0.0000
vt 0.2105 0.5864 0.0000
vt 0.1299 0.5864 0.0000
vt 0.8085 0.0056 0.0000
vt 0.1614 0.7609 0.0000
vt 0.1669 0.7554 0.0000
vt 0.2469 0.7554 0.0000
vt 0.1614 0.6772 0.0000
vt 0.1669 0.6772 0.0000
vt 0.2469 0.7191 0.0000
vt 0.2469 0.6772 0.0000
vt 0.1559 0.7554 0.0000
vt 0.1559 0.6772 0.0000
vt 0.0703 0.7609 0.0000
vt 0.0804 0.7554 0.0000
vt 0.0703 0.6772 0.0000
vt 0.0804 0.6772 0.0000
vt 0.7983 0.4761 0.0000
vt 0.8402 0.4761 0.0000
vt 0.8402 0.4816 0.0000
vt 0.7983 0.4816 0.0000
vt 0.8820 0.4761 0.0000
vt 0.8765 0.4816 0.0000
vt 0.8820 0.5672 0.0000
vt 0.8765 0.5617 0.0000
vt 0.7983 0.5672 0.0000
vt 0.7983 0.5617 0.0000
vt 0.8765 0.5727 0.0000
vt 0.7983 0.5727 0.0000
vt 0.8820 0.6482 0.0000
vt 0.8765 0.6482 0.0000
vt 0.4346 0.6767 0.0000
vt 0.3435 0.6767 0.0000
vt 0.3490 0.6712 0.0000
vt 0.4245 0.6712 0.0000
vt 0.3435 0.5930 0.0000
vt 0.3490 0.5930 0.0000
vt 0.4346 0.5930 0.0000
vt 0.4245 0.5930 0.0000
vt 0.3380 0.6712 0.0000
vt 0.3380 0.5930 0.0000
vt 0.2579 0.6712 0.0000
vt 0.2579 0.6349 0.0000
vt 0.2579 0.5930 0.0000
vt 0.5835 0.4966 0.0000
vt 0.6672 0.4966 0.0000
vt 0.6672 0.5066 0.0000
vt 0.5890 0.5066 0.0000
vt 0.6253 0.6117 0.0000
vt 0.6672 0.6117 0.0000
vt 0.5890 0.6117 0.0000
vt 0.9792 0.4761 0.0000
vt 0.9737 0.5815 0.0000
vt 0.9737 0.4761 0.0000
vt 0.9374 0.5809 0.0000
vt 0.8955 0.5809 0.0000
vt 0.5835 0.9799 0.0000
vt 0.5835 0.8993 0.0000
vt 0.5890 0.9048 0.0000
vt 0.5890 0.9734 0.0000
vt 0.6672 0.8994 0.0000
vt 0.6672 0.9049 0.0000
vt 0.6672 0.9799 0.0000
vt 0.6672 0.9734 0.0000
vt 0.6672 0.8189 0.0000
vt 0.5835 0.8188 0.0000
vt 0.5890 0.8133 0.0000
vt 0.6672 0.8134 0.0000
vt 0.5890 0.7437 0.0000
vt 0.6253 0.7438 0.0000
vt 0.6672 0.7438 0.0000
vt 0.8955 0.8687 0.0000
vt 0.9792 0.8687 0.0000
vt 0.9737 0.8742 0.0000
vt 0.8955 0.8742 0.0000
vt 0.9792 0.9429 0.0000
vt 0.9737 0.9429 0.0000
vt 0.9373 0.7131 0.0000
vt 0.8955 0.7131 0.0000
vt 0.9737 0.7131 0.0000
vt 0.9792 0.7883 0.0000
vt 0.9737 0.7828 0.0000
vt 0.8955 0.7883 0.0000
vt 0.8955 0.7828 0.0000
vt 0.5890 0.8938 0.0000
vt 0.6672 0.8939 0.0000
vt 0.5890 0.8243 0.0000
vt 0.6672 0.8244 0.0000
vt 0.9737 0.7938 0.0000
vt 0.8955 0.7938 0.0000
vt 0.9737 0.8632 0.0000
vt 0.8955 0.8632 0.0000
vt 0.7542 0.5221 0.0000
vt 0.7542 0.6032 0.0000
vt 0.7487 0.5977 0.0000
vt 0.7487 0.5221 0.0000
vt 0.6705 0.6032 0.0000
vt 0.6704 0.5977 0.0000
vt 0.7487 0.6087 0.0000
vt 0.6704 0.6087 0.0000
vt 0.7542 0.6942 0.0000
vt 0.7487 0.6887 0.0000
vt 0.7123 0.6887 0.0000
vt 0.6704 0.6887 0.0000
vt 0.5133 0.6131 0.0000
vt 0.4714 0.6131 0.0000
vt 0.4714 0.6067 0.0000
vt 0.5133 0.6067 0.0000
vt 0.4351 0.6131 0.0000
vt 0.4351 0.6067 0.0000
vt 0.4351 0.5930 0.0000
vt 0.5151 0.5930 0.0000
vt 0.5151 0.5993 0.0000
vt 0.4351 0.5993 0.0000
vt 0.6551 0.2066 0.0000
vt 0.6551 0.1284 0.0000
vt 0.6615 0.1284 0.0000
vt 0.6615 0.2066 0.0000
vt 0.6512 0.1284 0.0000
vt 0.6512 0.2066 0.0000
vt 0.6449 0.2066 0.0000
vt 0.6449 0.1284 0.0000
vt 0.6602 0.2959 0.0000
vt 0.6602 0.2204 0.0000
vt 0.6666 0.2204 0.0000
vt 0.6666 0.2959 0.0000
vt 0.9824 0.2015 0.0000
vt 0.9824 0.1232 0.0000
vt 0.9924 0.1232 0.0000
vt 0.9924 0.2015 0.0000
vt 0.9924 0.8394 0.0000
vt 0.9924 0.9079 0.0000
vt 0.9824 0.9078 0.0000
vt 0.9824 0.8392 0.0000
vt 0.8955 0.5543 0.0000
vt 0.8955 0.4761 0.0000
vt 0.9055 0.4761 0.0000
vt 0.9055 0.5543 0.0000
vt 0.9924 0.2153 0.0000
vt 0.9924 0.2935 0.0000
vt 0.9824 0.2935 0.0000
vt 0.9824 0.2153 0.0000
vt 0.9924 0.7574 0.0000
vt 0.9924 0.8270 0.0000
vt 0.9824 0.8268 0.0000
vt 0.9824 0.7574 0.0000
vt 0.6295 0.2066 0.0000
vt 0.6295 0.1702 0.0000
vt 0.6395 0.1702 0.0000
vt 0.6395 0.2066 0.0000
vt 0.6295 0.1284 0.0000
vt 0.6395 0.1284 0.0000
vt 0.6549 0.2204 0.0000
vt 0.6549 0.2986 0.0000
vt 0.6449 0.2986 0.0000
vt 0.6449 0.2204 0.0000
vt 0.9924 0.3995 0.0000
vt 0.9924 0.4691 0.0000
vt 0.9824 0.4691 0.0000
vt 0.9824 0.3994 0.0000
vt 0.9924 0.3073 0.0000
vt 0.9924 0.3492 0.0000
vt 0.9824 0.3493 0.0000
vt 0.9824 0.3073 0.0000
vt 0.9924 0.3856 0.0000
vt 0.9824 0.3856 0.0000
vt 0.9924 0.0061 0.0000
vt 0.9924 0.1111 0.0000
vt 0.9824 0.1110 0.0000
vt 0.9824 0.0056 0.0000
vt 0.9261 0.4761 0.0000
vt 0.9261 0.5180 0.0000
vt 0.9159 0.5180 0.0000
vt 0.9159 0.4761 0.0000
vt 0.9261 0.5543 0.0000
vt 0.9159 0.5543 0.0000
vt 0.4351 0.6772 0.0000
vt 0.5151 0.6772 0.0000
vt 0.5151 0.6874 0.0000
vt 0.4351 0.6874 0.0000
vt 0.9824 0.6566 0.0000
vt 0.9824 0.5784 0.0000
vt 0.9926 0.5784 0.0000
vt 0.9926 0.6566 0.0000
vt 0.6397 0.2204 0.0000
vt 0.6397 0.2986 0.0000
vt 0.6295 0.2986 0.0000
vt 0.6295 0.2204 0.0000
vt 0.9824 0.7460 0.0000
vt 0.9824 0.6704 0.0000
vt 0.9926 0.6705 0.0000
vt 0.9926 0.7460 0.0000
vt 0.9364 0.4761 0.0000
vt 0.9466 0.4761 0.0000
vt 0.9466 0.5543 0.0000
vt 0.9364 0.5543 0.0000
vt 0.9824 0.4863 0.0000
vt 0.9924 0.4863 0.0000
vt 0.9924 0.5646 0.0000
vt 0.9824 0.5646 0.0000
vt 0.4351 0.6062 0.0000
vt 0.4351 0.5998 0.0000
vt 0.5133 0.5998 0.0000
vt 0.5133 0.6062 0.0000
vt 0.4351 0.6979 0.0000
vt 0.4351 0.6879 0.0000
vt 0.5133 0.6879 0.0000
vt 0.5133 0.6979 0.0000
# 370 texture coords

o Br_Bloemen_Hall
g Br_Bloemen_Hall
usemtl Material__13
s 1
f 1/1/1 2/2/1 3/3/1 4/4/1 
usemtl 03___Default
s 2
f 5/5/2 6/6/2 2/7/2 1/8/2 
s 4
f 7/9/3 8/10/3 9/11/3 10/12/3 
s 2
f 11/13/4 12/14/4 13/15/4 14/16/4 
s 4
f 15/17/5 16/18/5 17/19/5 18/20/5 
s 1
f 5/21/6 19/22/6 20/23/6 21/24/6 
f 11/25/6 22/26/6 23/27/6 24/28/6 
f 7/29/6 25/30/6 26/31/6 27/32/6 
s 2
f 21/33/5 20/34/5 28/35/5 29/36/5 
s 4
f 27/37/2 26/38/2 30/39/2 31/40/2 
s 2
f 31/41/3 32/42/3 33/43/3 34/44/3 
s 4
f 29/45/2 35/46/2 36/47/2 37/48/2 
usemtl Material__13
s 1
f 38/49/1 39/50/1 40/51/1 41/52/1 
usemtl 03___Default
s 2
f 42/53/2 25/54/2 39/55/2 38/56/2 
f 15/57/4 18/58/4 43/59/4 
s 1
f 44/60/6 12/61/6 45/62/6 46/63/6 
f 42/64/6 6/65/6 47/66/6 48/67/6 
s 4
f 48/68/2 47/69/2 37/48/2 49/70/2 
usemtl Material__13
s 1
f 2/2/1 38/49/1 41/52/1 3/3/1 
usemtl 03___Default
s 2
f 6/6/2 42/53/2 38/56/2 2/7/2 
f 12/14/4 44/71/4 50/72/4 13/15/4 
s 1
f 25/30/6 42/64/6 48/67/6 26/31/6 
s 4
f 26/38/2 48/68/2 49/70/2 30/39/2 
usemtl Material__13
s 1
f 39/50/1 10/73/1 9/74/1 40/51/1 
usemtl 03___Default
s 2
f 25/54/2 7/75/2 10/76/2 39/55/2 
s 1
f 12/61/6 11/25/6 24/28/6 45/62/6 
f 6/65/6 5/21/6 21/24/6 47/66/6 
s 4
f 47/69/2 21/77/2 29/45/2 37/48/2 
f 51/78/2 32/79/2 31/40/2 30/39/2 
s 1
f 49/80/6 37/81/6 52/82/6 53/83/6 
s 2
f 51/84/7 30/85/7 54/86/7 55/87/7 
usemtl Material__13
s 1
f 3/3/1 56/88/1 17/89/1 4/4/1 
usemtl 03___Default
s 4
f 8/10/3 22/90/3 57/91/3 9/11/3 
f 19/92/5 5/93/5 1/94/5 4/95/5 
s 1
f 19/22/6 16/96/6 58/97/6 20/23/6 
f 8/98/6 7/29/6 27/32/6 59/99/6 
s 2
f 59/100/3 27/101/3 31/41/3 34/44/3 
f 60/102/5 35/103/5 29/36/5 28/35/5 
usemtl Material__13
s 1
f 40/51/1 61/104/1 62/105/1 41/52/1 
f 41/52/1 62/105/1 56/88/1 3/3/1 
f 9/74/1 57/106/1 61/104/1 40/51/1 
usemtl 03___Default
s 2
f 53/107/4 63/108/4 64/109/4 65/110/4 
s 4
f 66/111/4 54/112/4 53/107/4 65/110/4 67/113/4 
s 1
f 65/114/6 64/115/6 68/116/6 69/117/6 
f 67/118/6 65/114/6 69/117/6 69/117/6 70/119/6 
usemtl Material__13
f 56/88/1 43/120/1 18/121/1 17/89/1 
usemtl 03___Default
s 8
f 22/90/3 11/122/3 14/123/3 57/91/3 
s 1
f 16/96/6 15/124/6 71/125/6 58/97/6 
usemtl Material__13
f 61/104/1 13/126/1 50/127/1 62/105/1 
f 62/105/1 50/127/1 43/120/1 56/88/1 
f 57/106/1 14/128/1 13/126/1 61/104/1 
usemtl 03___Default
s 4
f 16/18/5 19/92/5 4/95/5 17/19/5 
s 1
f 22/26/6 8/98/6 59/99/6 23/27/6 
f 68/116/6 72/129/6 73/130/6 74/131/6 75/132/6 69/117/6 
f 69/117/6 75/132/6 76/133/6 69/117/6 
f 52/82/6 63/134/6 53/83/6 
f 54/135/6 30/136/6 49/80/6 53/83/6 
s 2
f 52/137/3 37/138/3 36/139/3 77/140/3 
s 4
f 52/141/4 77/142/4 78/143/4 79/144/4 
s 8
f 79/145/8 78/146/8 80/147/8 63/148/8 
f 55/149/9 54/112/9 66/111/9 81/150/9 
s 1
f 52/82/6 79/151/6 63/134/6 
s 2
f 46/152/4 45/153/4 82/154/4 83/155/4 
s 4
f 83/155/4 82/154/4 84/156/4 85/157/4 
s 1
f 86/158/2 87/159/2 88/160/2 89/161/2 
s 2
f 89/161/2 88/160/2 76/162/2 75/163/2 
s 1
f 44/60/6 90/164/10 91/165/10 
s 2
f 43/59/4 50/72/4 44/71/4 15/57/4 
s 1
f 76/133/6 92/166/6 70/119/6 69/117/6 
s 2
f 20/34/5 58/167/5 93/168/5 94/169/5 
f 58/167/5 95/170/5 96/171/5 93/168/5 
f 60/102/5 28/35/5 97/172/5 98/173/5 
f 28/35/5 20/34/5 94/169/5 97/172/5 
f 95/170/5 58/167/5 99/174/5 100/175/5 
f 58/167/5 71/176/5 101/177/5 99/174/5 
f 71/176/5 102/178/5 103/179/5 101/177/5 
f 81/180/11 66/181/11 104/182/11 105/183/11 
f 66/181/11 67/184/5 106/185/5 104/182/11 
s 8
f 67/184/5 70/186/5 107/187/5 106/185/5 
s 2
f 70/186/12 108/188/12 109/189/12 107/187/12 
s 4
f 108/188/11 70/186/5 110/190/5 111/191/11 
f 70/186/5 92/192/13 112/193/13 110/190/5 
s 2
f 24/194/3 23/195/3 113/196/3 114/197/3 
f 23/195/3 115/198/3 116/199/3 113/196/3 
f 117/200/3 24/194/3 114/197/3 118/201/3 
f 115/198/3 23/195/3 119/202/3 120/203/3 
f 23/195/3 59/100/3 121/204/3 119/202/3 
f 59/100/3 34/44/3 122/205/3 121/204/3 
f 34/44/3 33/43/3 123/206/3 122/205/3 
s 8
f 24/207/4 117/208/4 124/209/4 125/210/4 
s 4
f 84/156/4 82/154/4 126/211/4 127/212/4 
f 82/154/4 45/153/4 128/213/4 126/211/4 
f 45/153/4 24/207/4 125/210/4 128/213/4 
s 8
f 92/214/14 76/162/14 129/215/14 112/216/14 
s 2
f 76/162/2 88/160/2 130/217/2 129/215/2 
f 88/160/2 87/159/2 131/218/2 130/217/2 
s 4
f 71/219/4 91/220/4 132/221/4 133/222/4 
f 91/220/4 134/223/4 135/224/4 132/221/4 
f 102/225/4 71/219/4 133/222/4 136/226/4 
f 137/227/4 90/228/4 138/229/4 139/230/4 
f 90/228/4 46/152/4 140/231/4 138/229/4 
f 46/152/4 83/155/4 141/232/4 140/231/4 
f 83/155/4 85/157/4 142/233/4 141/232/4 
f 143/234/2 73/235/2 144/236/2 145/237/2 
s 8
f 73/235/15 72/238/15 146/239/15 144/236/15 
s 2
f 86/158/2 89/161/2 147/240/2 148/241/2 
f 89/161/2 75/163/2 149/242/2 147/240/2 
f 75/163/2 74/243/2 150/244/2 149/242/2 
f 74/243/2 151/245/2 152/246/2 150/244/2 
s 4
f 134/223/4 91/220/4 153/247/4 154/248/4 
f 91/220/4 90/228/4 155/249/4 153/247/4 
f 90/228/4 137/227/4 156/250/4 155/249/4 
s 2
f 151/245/2 74/243/2 157/251/2 158/252/2 
f 74/243/2 73/235/2 159/253/2 157/251/2 
s 16
f 73/235/2 143/234/2 160/254/2 159/253/2 
s 2
f 72/255/3 68/256/8 161/257/8 146/258/3 
f 68/256/8 162/259/8 163/260/8 161/257/8 
s 4
f 162/259/3 68/256/3 164/261/3 165/262/3 
s 8
f 68/256/3 64/263/3 166/264/3 164/261/3 
f 64/263/3 63/148/8 167/265/8 166/264/3 
f 63/148/8 80/147/8 168/266/8 167/265/8 
s 1
f 98/267/16 97/268/16 167/269/16 168/270/16 
f 97/268/16 94/271/4 166/272/4 167/269/16 
s 16
f 94/273/10 93/274/10 164/275/10 166/276/10 
s 1
f 93/277/2 96/278/2 165/279/2 164/280/2 
f 100/281/17 99/282/17 161/283/17 163/284/17 
s 4
f 99/285/10 101/286/10 146/287/10 161/288/10 
s 1
f 132/289/18 135/290/18 145/291/18 144/292/18 
s 16
f 133/293/6 132/294/6 144/295/6 146/296/6 
s 1
f 155/297/19 156/298/19 158/299/19 157/300/19 
f 154/301/20 153/302/20 159/303/20 160/304/20 
s 8
f 153/305/21 155/306/21 157/307/21 159/308/21 
s 1
f 140/309/22 141/310/22 147/311/22 149/312/22 
s 8
f 141/310/23 142/313/23 148/314/23 147/311/23 
s 1
f 139/315/24 138/316/24 150/317/24 152/318/24 
s 8
f 138/319/25 140/320/25 149/321/25 150/322/25 
s 1
f 127/323/26 126/324/26 130/325/26 131/326/26 
s 16
f 126/324/27 128/327/27 129/328/27 130/325/27 
s 1
f 128/329/6 125/330/6 112/331/6 129/332/6 
f 105/333/4 104/334/4 122/335/4 123/336/4 
s 4
f 104/334/16 106/337/16 121/338/16 122/335/16 
s 1
f 106/339/6 107/340/6 119/341/6 121/342/6 
s 4
f 107/343/28 109/344/28 120/345/28 119/346/28 
s 1
f 111/347/29 110/348/29 113/349/29 116/350/29 
s 16
f 110/351/6 112/352/6 114/353/6 113/354/6 
s 32
f 169/355/30 118/356/30 114/357/30 112/358/30 
s 2
f 124/359/31 169/360/31 112/361/31 125/362/31 
s 1
f 91/165/10 71/125/6 15/124/6 44/60/6 
s 8
f 44/60/6 46/63/6 90/164/6 
s 1
f 146/363/32 101/364/32 103/365/32 170/366/32 
s 32
f 133/367/33 146/368/33 170/369/33 136/370/33 
# 146 polygons - 5 triangles

