# 3ds Max Wavefront OBJ Exporter v0.99 - (c)2007 guruware
# File Created: 20.02.2023 18:38:57

mtllib HQ_water_bowl.mtl

#
# object HQ_water_bowl
#

v  1.7447 -0.0000 -0.0000
v  1.2337 -0.0000 -1.2337
v  1.0125 0.7500 -1.0125
v  1.4319 0.7500 -0.0000
v  -0.0000 -0.0000 -1.7447
v  -0.0000 0.7500 -1.4319
v  -1.2337 -0.0000 -1.2337
v  -1.0125 0.7500 -1.0125
v  -1.7447 -0.0000 0.0000
v  -1.4319 0.7500 0.0000
v  -1.2337 -0.0000 1.2337
v  -0.9988 0.7500 1.0143
v  0.0000 -0.0000 1.7447
v  -0.0110 0.7500 1.4235
v  1.2337 -0.0000 1.2337
v  1.0125 0.7500 1.0125
v  0.6802 0.1548 0.6802
v  0.9620 0.1548 0.0000
v  0.6802 0.1548 -0.6802
v  -0.0000 0.1548 -0.9620
v  -0.6802 0.1548 -0.6802
v  -0.9620 0.1548 0.0000
v  -0.6802 0.1548 0.6802
v  0.0000 0.1548 0.9620
v  0.7884 0.7500 -0.7884
v  1.1150 0.7500 0.0000
v  -0.0000 0.7500 -1.1150
v  -0.7884 0.7500 -0.7884
v  -1.1150 0.7500 0.0000
v  -0.7802 0.7500 0.7957
v  -0.0110 0.7500 1.1143
v  0.7884 0.7500 0.7884
# 32 vertices

vn 0.9229 0.3850 -0.0000
vn 0.6526 0.3850 -0.6526
vn 0.4500 0.7714 -0.4500
vn 0.6363 0.7714 -0.0000
vn 0.0000 0.3850 -0.9229
vn -0.0000 0.7714 -0.6363
vn -0.6526 0.3850 -0.6526
vn -0.4500 0.7714 -0.4500
vn -0.9229 0.3850 -0.0000
vn -0.6373 0.7706 0.0038
vn -0.6518 0.3938 0.6481
vn -0.4422 0.7753 0.4509
vn 0.0026 0.3938 0.9192
vn -0.0062 0.7753 0.6315
vn 0.6526 0.3850 0.6526
vn 0.4479 0.7706 0.4533
vn -0.4892 0.7221 -0.4892
vn -0.6918 0.7221 0.0000
vn -0.4892 0.7221 0.4892
vn 0.0000 0.7221 0.6918
vn 0.4892 0.7221 0.4892
vn 0.6918 0.7221 -0.0000
vn 0.4918 0.7217 -0.4872
vn -0.0033 0.7217 -0.6922
vn -0.3527 0.8667 0.3527
vn -0.4988 0.8667 -0.0000
vn 0.0000 0.8667 0.4988
vn 0.3527 0.8667 0.3527
vn 0.4978 0.8673 -0.0013
vn 0.3513 0.8660 -0.3559
vn 0.0033 0.8660 -0.5001
vn -0.3511 0.8673 -0.3529
# 32 vertex normals

vt 0.9027 0.2140 -0.2348
vt 0.9800 0.3465 0.2348
vt 0.8933 0.3812 -0.2348
vt 0.8298 0.2724 -0.2348
vt 0.0200 0.3465 0.2348
vt 0.0976 0.2141 -0.2348
vt 0.1703 0.2727 -0.2348
vt 0.1066 0.3814 -0.2348
vt 0.2104 0.1101 -0.2348
vt 0.2629 0.1873 -0.2348
vt 0.3486 0.0435 -0.2348
vt 0.3763 0.1326 -0.2348
vt 0.5003 0.0200 -0.2348
vt 0.5017 0.1138 -0.2348
vt 0.6520 0.0428 -0.2348
vt 0.6232 0.1320 -0.2348
vt 0.7901 0.1097 -0.2348
vt 0.7374 0.1868 -0.2348
vt 0.5415 0.4515 0.2674
vt 0.6319 0.5228 0.2674
vt 0.6492 0.6366 0.2674
vt 0.5758 0.7260 0.2674
vt 0.4619 0.7427 0.2674
vt 0.3763 0.6705 0.2674
vt 0.3543 0.5601 0.2674
vt 0.4267 0.4705 0.2674
vt 0.8067 0.4043 -0.2674
vt 0.8562 0.6777 0.2674
vt 0.7801 0.6592 0.2674
vt 0.7406 0.4454 0.2674
vt 0.6933 0.9057 0.2674
vt 0.6528 0.8381 0.2674
vt 0.4158 0.9525 0.2674
vt 0.4359 0.8756 0.2674
vt 0.1873 0.7817 -0.2674
vt 0.2556 0.7439 0.2674
vt 0.1678 0.5088 0.2674
vt 0.2372 0.5291 0.2674
vt 0.3147 0.3061 0.2674
vt 0.3519 0.3645 0.2674
vt 0.5780 0.2476 0.2674
vt 0.5619 0.3247 0.2674
# 42 texture coords

o HQ_water_bowl
g HQ_water_bowl
usemtl Material__24
s 1
f 1/1/1 2/2/2 3/3/3 4/4/4 
f 2/5/2 5/6/5 6/7/6 3/8/3 
f 5/6/5 7/9/7 8/10/8 6/7/6 
f 7/9/7 9/11/9 10/12/10 8/10/8 
f 9/11/9 11/13/11 12/14/12 10/12/10 
f 11/13/11 13/15/13 14/16/14 12/14/12 
f 13/15/13 15/17/15 16/18/16 14/16/14 
f 15/17/15 1/1/1 4/4/4 16/18/16 
f 17/19/17 18/20/18 19/21/19 20/22/20 21/23/21 22/24/22 23/25/23 24/26/24 
f 4/27/4 3/28/3 25/29/25 26/30/26 
f 3/28/3 6/31/6 27/32/27 25/29/25 
f 6/31/6 8/33/8 28/34/28 27/32/27 
f 8/33/8 10/35/10 29/36/29 28/34/28 
f 10/35/10 12/37/12 30/38/30 29/36/29 
f 12/37/12 14/39/14 31/40/31 30/38/30 
f 14/39/14 16/41/16 32/42/32 31/40/31 
f 16/41/16 4/27/4 26/30/26 32/42/32 
s 2
f 26/30/26 25/29/25 19/21/19 18/20/18 
f 25/29/25 27/32/27 20/22/20 19/21/19 
f 27/32/27 28/34/28 21/23/21 20/22/20 
f 28/34/28 29/36/29 22/24/22 21/23/21 
f 29/36/29 30/38/30 23/25/23 22/24/22 
f 30/38/30 31/40/31 24/26/24 23/25/23 
f 31/40/31 32/42/32 17/19/17 24/26/24 
f 32/42/32 26/30/26 18/20/18 17/19/17 
# 25 polygons

