# 3ds Max Wavefront OBJ Exporter v0.99 - (c)2007 guruware
# File Created: 20.02.2023 18:39:23

mtllib HQ_ball.mtl

#
# object HQ_ball
#

v  0.0000 1.3275 -0.0000
v  -0.0000 1.1402 -0.4522
v  -0.3198 1.1402 -0.3198
v  -0.4522 1.1402 0.0000
v  -0.3198 1.1402 0.3198
v  0.0000 1.1402 0.4522
v  0.3198 1.1402 0.3198
v  0.4522 1.1402 0.0000
v  0.3198 1.1402 -0.3198
v  -0.0000 0.6880 -0.6396
v  -0.4522 0.6880 -0.4522
v  -0.6396 0.6880 0.0000
v  -0.4522 0.6880 0.4522
v  0.0000 0.6880 0.6396
v  0.4522 0.6880 0.4522
v  0.6396 0.6880 0.0000
v  0.4522 0.6880 -0.4522
v  -0.0000 0.2358 -0.4522
v  -0.3198 0.2358 -0.3198
v  -0.4522 0.2358 0.0000
v  -0.3198 0.2358 0.3198
v  0.0000 0.2358 0.4522
v  0.3198 0.2358 0.3198
v  0.4522 0.2358 0.0000
v  0.3198 0.2358 -0.3198
v  0.0000 0.0484 -0.0000
# 26 vertices

vn -0.0000 1.0000 -0.0000
vn 0.0000 0.6630 -0.7486
vn -0.5294 0.6630 -0.5294
vn -0.7486 0.6630 0.0000
vn -0.5294 0.6630 0.5294
vn 0.0000 0.6630 0.7486
vn 0.5294 0.6630 0.5294
vn 0.7486 0.6630 0.0000
vn 0.5294 0.6630 -0.5294
vn 0.0000 0.0000 -1.0000
vn -0.7071 0.0000 -0.7071
vn -1.0000 0.0000 0.0000
vn -0.7071 0.0000 0.7071
vn 0.0000 0.0000 1.0000
vn 0.7071 0.0000 0.7071
vn 1.0000 -0.0000 0.0000
vn 0.7071 0.0000 -0.7071
vn 0.0000 -0.6630 -0.7486
vn -0.5294 -0.6630 -0.5294
vn -0.7486 -0.6630 0.0000
vn -0.5294 -0.6630 0.5294
vn -0.0000 -0.6630 0.7486
vn 0.5294 -0.6630 0.5294
vn 0.7486 -0.6630 0.0000
vn 0.5294 -0.6630 -0.5294
vn -0.0000 -1.0000 -0.0000
# 26 vertex normals

vt 0.5439 0.9644 0.0000
vt 0.3851 0.9535 0.0000
vt 0.4320 0.8512 0.0000
vt 0.5878 0.8841 0.0000
vt 0.4927 0.7563 0.0000
vt 0.6474 0.7960 0.0000
vt 0.5576 0.6640 0.0000
vt 0.7126 0.7062 0.0000
vt 0.6243 0.5720 0.0000
vt 0.7803 0.6156 0.0000
vt 0.6922 0.4798 0.0000
vt 0.8501 0.5249 0.0000
vt 0.7615 0.3866 0.0000
vt 0.9228 0.4351 0.0000
vt 0.8339 0.2920 0.0000
vt 1.0000 0.3516 0.0000
vt 0.9148 0.1970 0.0000
vt 0.2322 0.9091 0.0000
vt 0.3105 0.7823 0.0000
vt 0.3777 0.6797 0.0000
vt 0.4441 0.5839 0.0000
vt 0.5107 0.4902 0.0000
vt 0.5772 0.3965 0.0000
vt 0.6436 0.3008 0.0000
vt 0.7109 0.1982 0.0000
vt 0.7891 0.0713 0.0000
vt 0.1065 0.7834 0.0000
vt 0.1874 0.6884 0.0000
vt 0.2598 0.5939 0.0000
vt 0.3291 0.5007 0.0000
vt 0.3970 0.4085 0.0000
vt 0.4637 0.3165 0.0000
vt 0.5286 0.2241 0.0000
vt 0.5893 0.1293 0.0000
vt 0.6362 0.0269 0.0000
vt 0.0213 0.6289 0.0000
vt 0.0985 0.5453 0.0000
vt 0.1713 0.4556 0.0000
vt 0.2410 0.3648 0.0000
vt 0.3087 0.2743 0.0000
vt 0.3739 0.1845 0.0000
vt 0.4335 0.0963 0.0000
vt 0.4774 0.0161 0.0000
# 43 texture coords

o HQ_ball
g HQ_ball
usemtl Material__87
s 1
f 1/1/1 2/2/2 3/3/3 
f 1/4/1 3/3/3 4/5/4 
f 1/6/1 4/5/4 5/7/5 
f 1/8/1 5/7/5 6/9/6 
f 1/10/1 6/9/6 7/11/7 
f 1/12/1 7/11/7 8/13/8 
f 1/14/1 8/13/8 9/15/9 
f 1/16/1 9/15/9 2/17/2 
f 2/2/2 10/18/10 11/19/11 3/3/3 
f 3/3/3 11/19/11 12/20/12 4/5/4 
f 4/5/4 12/20/12 13/21/13 5/7/5 
f 5/7/5 13/21/13 14/22/14 6/9/6 
f 6/9/6 14/22/14 15/23/15 7/11/7 
f 7/11/7 15/23/15 16/24/16 8/13/8 
f 8/13/8 16/24/16 17/25/17 9/15/9 
f 9/15/9 17/25/17 10/26/10 2/17/2 
f 10/18/10 18/27/18 19/28/19 11/19/11 
f 11/19/11 19/28/19 20/29/20 12/20/12 
f 12/20/12 20/29/20 21/30/21 13/21/13 
f 13/21/13 21/30/21 22/31/22 14/22/14 
f 14/22/14 22/31/22 23/32/23 15/23/15 
f 15/23/15 23/32/23 24/33/24 16/24/16 
f 16/24/16 24/33/24 25/34/25 17/25/17 
f 17/25/17 25/34/25 18/35/18 10/26/10 
f 26/36/26 19/28/19 18/27/18 
f 26/37/26 20/29/20 19/28/19 
f 26/38/26 21/30/21 20/29/20 
f 26/39/26 22/31/22 21/30/21 
f 26/40/26 23/32/23 22/31/22 
f 26/41/26 24/33/24 23/32/23 
f 26/42/26 25/34/25 24/33/24 
f 26/43/26 18/35/18 25/34/25 
# 16 polygons - 16 triangles

