# 3ds Max Wavefront OBJ Exporter v0.99 - (c)2007 guruware
# File Created: 20.02.2023 18:40:22

mtllib HQ_cat_bed.mtl

#
# object HQ_cat_bed
#

v  -2.7500 0.1411 -1.9878
v  -2.7500 0.1411 1.9878
v  2.7500 0.1411 1.9878
v  2.7500 0.1411 -1.9878
v  -3.0735 -0.0000 2.9878
v  3.0735 -0.0000 2.9878
v  3.0735 0.2920 2.9878
v  -3.0735 0.2920 2.9878
v  3.7500 -0.0000 2.3113
v  3.7500 -0.0000 -2.3113
v  3.7500 0.2920 -2.3113
v  3.7500 0.2920 2.3113
v  -3.7500 0.2920 -2.3113
v  -3.0735 0.2920 -2.9878
v  -3.7500 0.2920 2.3113
v  3.0735 0.2920 -2.9878
v  -3.7500 -0.0000 2.3113
v  3.0735 -0.0000 -2.9878
# 18 vertices

vn 0.0619 0.9962 0.0619
vn 0.0619 0.9962 -0.0619
vn -0.0619 0.9962 -0.0619
vn -0.0619 0.9962 0.0619
vn -0.3826 0.0000 0.9239
vn 0.3826 0.0000 0.9239
vn 0.2842 0.6733 0.6826
vn -0.2842 0.6733 0.6826
vn 0.9239 0.0000 0.3826
vn 0.9239 0.0000 -0.3826
vn 0.6826 0.6733 -0.2842
vn 0.6826 0.6733 0.2842
vn 0.1323 0.9898 0.0526
vn 0.0526 0.9898 0.1323
vn -0.3002 0.8788 0.3710
vn 0.3710 0.8788 -0.3002
vn -0.7071 0.0000 0.7071
vn 0.7071 0.0000 -0.7071
# 18 vertex normals

vt 0.1553 0.6898 0.0000
vt 0.1552 0.2039 0.0000
vt 0.8272 0.2033 0.0000
vt 0.8273 0.6892 0.0000
vt 0.1148 0.0442 0.0000
vt 0.8677 0.0437 0.0000
vt 0.8677 0.0795 0.0000
vt 0.1148 0.0800 0.0000
vt 0.9870 0.1630 0.0000
vt 0.9869 0.7297 0.0000
vt 0.9511 0.7297 0.0000
vt 0.9512 0.1629 0.0000
vt 0.0314 0.7301 0.0000
vt 0.1148 0.8136 0.0000
vt 0.0314 0.1634 0.0000
vt 0.8677 0.8131 0.0000
vt 0.0060 0.1379 0.0000
vt 0.0894 0.0545 0.0000
vt 0.8932 0.0540 0.0000
vt 0.9766 0.1375 0.0000
vt 0.9766 0.7551 0.0000
vt 0.8932 0.8386 0.0000
# 22 texture coords

o HQ_cat_bed
g HQ_cat_bed
usemtl Material__86
s 1
f 1/1/1 2/2/2 3/3/3 4/4/4 
f 5/5/5 6/6/6 7/7/7 8/8/8 
f 9/9/9 10/10/10 11/11/11 12/12/12 
f 13/13/13 1/1/1 14/14/14 
f 8/8/8 2/2/2 15/15/15 
f 12/12/12 3/3/3 7/7/7 
f 16/16/16 4/4/4 11/11/11 
f 15/15/15 17/17/17 5/18/5 8/8/8 
f 7/7/7 6/19/6 9/20/9 12/12/12 
f 11/11/11 10/21/10 18/22/18 16/16/16 
f 1/1/1 13/13/13 15/15/15 2/2/2 
f 2/2/2 8/8/8 7/7/7 3/3/3 
f 3/3/3 12/12/12 11/11/11 4/4/4 
f 4/4/4 16/16/16 14/14/14 1/1/1 
# 10 polygons - 4 triangles

