# 3ds Max Wavefront OBJ Exporter v0.99 - (c)2007 guruware
# File Created: 20.02.2023 18:39:39

mtllib HQ_couch.mtl

#
# object HQ_couch
#

v  -1.8750 1.4465 -0.0000
v  -1.8750 -0.0000 -0.0000
v  -1.8750 -0.0000 3.7500
v  -1.8750 1.4465 3.7500
v  1.8750 -0.0000 3.7500
v  1.8750 1.4465 3.7500
v  -1.8750 1.4465 -3.7500
v  -1.8750 -0.0000 -3.7500
v  1.8750 1.4465 -3.7500
v  1.8750 -0.0000 -3.7500
v  -0.8750 1.4465 2.7500
v  1.8750 1.4465 2.7500
v  1.8750 1.4465 -0.0000
v  -0.8750 1.4465 -0.0000
v  1.8750 1.4465 -2.7500
v  -0.8750 1.4465 -2.7500
v  -1.8750 3.3148 -0.0000
v  -1.8750 3.3148 3.7500
v  -0.8750 3.3148 2.7500
v  -0.8750 3.3148 -0.0000
v  -1.8750 2.0521 3.7500
v  1.8750 2.0521 3.7500
v  1.8750 2.0521 2.7500
v  -0.8750 2.0521 2.7500
v  1.8750 2.0521 -3.7500
v  -1.8750 2.0521 -3.7500
v  -0.8750 2.0521 -2.7500
v  1.8750 2.0521 -2.7500
v  -1.8750 3.3148 -3.7500
v  -0.8750 3.3148 -2.7500
v  1.8750 -0.0000 2.7500
v  1.8750 -0.0000 -0.0000
v  1.8750 -0.0000 -2.7500
v  -1.8750 2.0521 -0.0000
v  -0.8750 2.0521 -0.0000
# 35 vertices

vn -1.0000 0.0000 0.0000
vn -0.7071 0.0000 0.7071
vn 0.7071 0.0000 0.7071
vn -0.7071 -0.0000 -0.7071
vn 0.7071 -0.0000 -0.7071
vn 0.5774 0.5774 -0.5774
vn 0.9045 0.3015 -0.3015
vn 0.7071 0.7071 -0.0000
vn 0.7071 0.7071 0.0000
vn 0.9045 0.3015 0.3015
vn 0.5774 0.5774 0.5774
vn -0.7071 0.7071 0.0000
vn -0.3204 0.5469 0.7735
vn 0.7173 0.6303 0.2971
vn -0.5879 0.2274 0.7763
vn 0.5774 0.5774 0.5773
vn 0.5773 0.5773 -0.5774
vn 0.8708 0.4825 -0.0942
vn 0.5774 0.5774 -0.5773
vn -0.5879 0.2274 -0.7763
vn 0.8708 0.4825 0.0942
vn 0.5773 0.5773 0.5774
vn -0.3204 0.5469 -0.7735
vn 0.7173 0.6303 -0.2971
vn 1.0000 0.0000 -0.0000
vn 1.0000 0.0000 0.0000
# 26 vertex normals

vt 0.4237 0.4060 0.0000
vt 0.3603 0.3384 0.0000
vt 0.5355 0.1742 0.0000
vt 0.5989 0.2417 0.0000
vt 0.7107 0.0100 0.0000
vt 0.7741 0.0775 0.0000
vt 0.2485 0.5702 0.0000
vt 0.1851 0.5026 0.0000
vt 0.0733 0.7344 0.0000
vt 0.0099 0.6668 0.0000
vt 0.7596 0.5068 0.0000
vt 0.8800 0.6353 0.0000
vt 0.7515 0.7558 0.0000
vt 0.6311 0.6273 0.0000
vt 0.6230 0.8762 0.0000
vt 0.5026 0.7477 0.0000
vt 0.5055 0.4933 0.0000
vt 0.6807 0.3290 0.0000
vt 0.6778 0.4196 0.0000
vt 0.5493 0.5400 0.0000
vt 0.7615 0.3317 0.0000
vt 0.9257 0.5069 0.0000
vt 0.8790 0.5506 0.0000
vt 0.7586 0.4222 0.0000
vt 0.4919 0.9135 0.0000
vt 0.3277 0.7383 0.0000
vt 0.4182 0.7412 0.0000
vt 0.5386 0.8697 0.0000
vt 0.3303 0.6575 0.0000
vt 0.4208 0.6604 0.0000
vt 0.9434 0.7029 0.0000
vt 0.8149 0.8233 0.0000
vt 0.6864 0.9438 0.0000
vt 0.6397 0.9875 0.0000
vt 0.5763 0.9200 0.0000
vt 0.9267 0.5915 0.0000
vt 0.9901 0.6591 0.0000
vt 0.6254 0.2700 0.0000
vt 0.4502 0.4343 0.0000
vt 0.8006 0.1058 0.0000
vt 0.8535 0.6070 0.0000
vt 0.9002 0.5632 0.0000
vt 0.7879 0.4803 0.0000
vt 0.9083 0.6088 0.0000
vt 0.6046 0.5990 0.0000
vt 0.7331 0.4785 0.0000
vt 0.4761 0.7194 0.0000
vt 0.5947 0.9027 0.0000
vt 0.4743 0.7742 0.0000
vt 0.5498 0.8917 0.0000
vt 0.5965 0.8479 0.0000
vt 0.2750 0.5985 0.0000
vt 0.0998 0.7627 0.0000
# 53 texture coords

o HQ_couch
g HQ_couch
usemtl Material__86
s 1
f 1/1/1 2/2/1 3/3/2 4/4/2 
s 2
f 4/4/2 3/3/2 5/5/3 6/6/3 
s 1
f 7/7/4 8/8/4 2/2/1 1/1/1 
s 2
f 9/9/5 10/10/5 8/8/4 7/7/4 
s 1
f 11/11/6 12/12/7 13/13/8 14/14/9 
f 13/13/8 15/15/10 16/16/11 14/14/9 
s 2
f 17/17/12 18/18/13 19/19/14 20/20/9 
s 4
f 21/21/15 22/22/16 23/23/17 24/24/18 
f 25/25/19 26/26/20 27/27/21 28/28/22 
s 2
f 29/29/23 17/17/12 20/20/9 30/30/24 
s 8
f 13/13/8 12/12/7 31/31/25 32/32/25 
f 15/15/10 13/13/8 32/32/25 33/33/26 
f 10/34/5 9/35/5 15/15/10 33/33/26 
f 6/36/3 5/37/3 31/31/25 12/12/7 
s 1
f 1/1/1 4/4/2 21/38/15 34/39/1 
s 2
f 4/4/2 6/6/3 22/40/16 21/38/15 
s 8
f 6/36/3 12/12/7 23/41/17 22/42/16 
s 2
f 12/12/7 11/11/6 24/43/18 23/44/17 
s 8
f 11/11/6 14/14/9 35/45/26 24/46/18 
f 14/14/9 16/16/11 27/47/21 35/45/26 
s 2
f 16/16/11 15/15/10 28/48/22 27/49/21 
s 8
f 15/15/10 9/35/5 25/50/19 28/51/22 
s 2
f 9/9/5 7/7/4 26/52/20 25/53/19 
s 1
f 7/7/4 1/1/1 34/39/1 26/52/20 
s 8
f 21/21/15 24/24/18 19/19/14 18/18/13 
f 24/46/18 35/45/26 20/20/9 19/19/14 
f 35/45/26 27/47/21 30/30/24 20/20/9 
f 27/27/21 26/26/20 29/29/23 30/30/24 
s 1
f 26/52/20 34/39/1 17/17/12 29/29/23 
f 34/39/1 21/38/15 18/18/13 17/17/12 
# 30 polygons

