# 3ds Max Wavefront OBJ Exporter v0.99 - (c)2007 guruware
# File Created: 20.02.2023 18:39:57

mtllib HQ_cat_tree.mtl

#
# object HQ_cat_tree
#

v  -3.7500 0.2110 1.8750
v  0.0000 0.2110 1.8750
v  0.0000 0.2110 -1.8750
v  -3.7500 0.2110 -1.8750
v  3.7500 0.2110 1.8750
v  3.7500 0.2110 -1.8750
v  -3.7500 -0.0000 1.8750
v  0.0000 -0.0000 1.8750
v  3.7500 -0.0000 1.8750
v  3.7500 -0.0000 -1.8750
v  -3.7500 -0.0000 -1.8750
v  -3.2725 5.1668 0.7794
v  -1.7059 5.1668 0.7794
v  -1.7059 5.1668 -1.5801
v  -3.2725 5.1668 -1.5801
v  -0.1393 5.1668 0.7794
v  -0.1393 5.1668 -1.5801
v  -1.7059 4.9275 -1.3469
v  -2.9745 4.9275 -1.3469
v  -2.9745 2.7885 -1.3469
v  -1.7059 2.7885 -1.3469
v  -1.7059 2.5492 -1.5801
v  -3.2725 2.5492 -1.5801
v  -3.2725 2.5492 0.7794
v  -0.4373 4.9275 -1.3469
v  -0.4373 2.7885 -1.3469
v  -0.1393 2.5492 0.7794
v  -0.1393 2.5492 -1.5801
v  -1.7059 2.5492 0.7794
v  -2.9745 4.9275 0.7794
v  -1.7059 4.9275 0.7794
v  -2.9745 2.7885 0.7794
v  -1.7059 2.7885 0.7794
v  -0.4373 2.7885 0.7794
v  -0.4373 4.9275 0.7794
v  0.7242 3.9864 1.1508
v  3.0258 3.9864 1.1508
v  3.0258 3.9864 -1.1508
v  0.7242 3.9864 -1.1508
v  0.7242 3.5071 1.1508
v  3.0258 3.5071 1.1508
v  3.0258 3.5071 -1.1508
v  0.7242 3.5071 -1.1508
v  2.3473 0.0907 -0.0011
v  1.9115 0.0907 -0.4369
v  1.9115 3.5984 -0.4369
v  2.3473 3.5984 -0.0011
v  1.4756 0.0907 -0.0011
v  1.4756 3.5984 -0.0011
v  1.9115 0.0907 0.4347
v  1.9115 3.5984 0.4347
v  -1.2949 0.0907 -0.0011
v  -1.7307 0.0907 -0.4369
v  -1.7307 2.6482 -0.4369
v  -1.2949 2.6482 -0.0011
v  -2.1666 0.0907 -0.0011
v  -2.1666 2.6482 -0.0011
v  -1.7307 0.0907 0.4347
v  -1.7307 2.6482 0.4347
# 59 vertices

vn -0.5774 0.5774 0.5774
vn 0.0000 0.7071 0.7071
vn 0.0000 1.0000 -0.0000
vn -0.7071 0.7071 -0.0000
vn 0.5774 0.5774 0.5774
vn 0.7071 0.7071 -0.0000
vn -0.7071 0.0000 0.7071
vn 0.0000 0.0000 1.0000
vn 0.7071 0.0000 0.7071
vn 1.0000 0.0000 -0.0000
vn -1.0000 0.0000 -0.0000
vn 0.0000 0.7071 -0.7071
vn -0.5774 0.5774 -0.5774
vn 0.5774 0.5774 -0.5774
vn 0.0000 -0.7071 0.7071
vn 0.5774 -0.5774 0.5774
vn 0.0000 -0.7071 -0.7071
vn -0.5774 -0.5774 -0.5774
vn -0.5774 -0.5774 0.5774
vn 0.5774 -0.5774 -0.5774
vn 0.3015 -0.3015 0.9045
vn 0.3015 0.3015 0.9045
vn -0.3015 0.3015 0.9045
vn -0.3015 -0.3015 0.9045
vn 0.0001 0.0000 -1.0000
vn -1.0000 0.0000 0.0001
# 26 vertex normals

vt 0.0285 0.6779 0.0000
vt 0.3433 0.6777 0.0000
vt 0.3435 0.9924 0.0000
vt 0.0287 0.9926 0.0000
vt 0.6580 0.6775 0.0000
vt 0.6582 0.9922 0.0000
vt 0.0285 0.6602 0.0000
vt 0.3433 0.6600 0.0000
vt 0.6580 0.6598 0.0000
vt 0.6757 0.6774 0.0000
vt 0.6759 0.9922 0.0000
vt 0.0110 0.9927 0.0000
vt 0.0108 0.6779 0.0000
vt 0.1665 0.1811 0.0000
vt 0.2680 0.1811 0.0000
vt 0.2680 0.3339 0.0000
vt 0.1665 0.3339 0.0000
vt 0.3694 0.1811 0.0000
vt 0.3694 0.3339 0.0000
vt 0.6343 0.3275 0.0000
vt 0.5385 0.3290 0.0000
vt 0.5360 0.1675 0.0000
vt 0.6318 0.1660 0.0000
vt 0.2680 0.5035 0.0000
vt 0.1665 0.5035 0.0000
vt 0.0137 0.3339 0.0000
vt 0.0137 0.5035 0.0000
vt 0.7301 0.3261 0.0000
vt 0.7276 0.1646 0.0000
vt 0.5222 0.3339 0.0000
vt 0.5222 0.5035 0.0000
vt 0.3694 0.5035 0.0000
vt 0.2680 0.6563 0.0000
vt 0.1665 0.6563 0.0000
vt 0.3694 0.6563 0.0000
vt 0.1858 0.1656 0.0000
vt 0.2680 0.1656 0.0000
vt 0.1665 0.0116 0.0000
vt 0.1858 0.0271 0.0000
vt 0.2680 0.0116 0.0000
vt 0.2680 0.0271 0.0000
vt 0.3694 0.0116 0.0000
vt 0.3501 0.0271 0.0000
vt 0.3501 0.1656 0.0000
vt 0.6367 0.4881 0.0000
vt 0.5409 0.4895 0.0000
vt 0.3779 0.3314 0.0000
vt 0.3755 0.1699 0.0000
vt 0.5336 0.0069 0.0000
vt 0.6294 0.0055 0.0000
vt 0.7252 0.0040 0.0000
vt 0.8882 0.1622 0.0000
vt 0.8906 0.3237 0.0000
vt 0.7325 0.4867 0.0000
vt 0.7952 0.3666 0.0000
vt 0.9591 0.3621 0.0000
vt 0.9636 0.5260 0.0000
vt 0.7997 0.5305 0.0000
vt 0.7943 0.3324 0.0000
vt 0.9582 0.3280 0.0000
vt 0.9932 0.3612 0.0000
vt 0.9977 0.5251 0.0000
vt 0.9645 0.5601 0.0000
vt 0.8006 0.5646 0.0000
vt 0.7655 0.5314 0.0000
vt 0.7611 0.3675 0.0000
vt 0.8051 0.7285 0.0000
vt 0.9690 0.7240 0.0000
vt 0.9367 0.7323 -0.3556
vt 0.9822 0.7323 -0.3556
vt 0.9822 0.9912 -0.3556
vt 0.9367 0.9912 -0.3556
vt 0.8002 0.7323 -0.3556
vt 0.8457 0.7323 0.3556
vt 0.8457 0.9912 0.3556
vt 0.8002 0.9912 -0.3556
vt 0.8912 0.7323 -0.3556
vt 0.8912 0.9912 -0.3556
vt 0.6362 0.6579 -0.2593
vt 0.5963 0.6579 -0.2593
vt 0.5963 0.4923 -0.2593
vt 0.6362 0.4923 -0.2593
vt 0.7560 0.6579 -0.2593
vt 0.7161 0.6579 0.2593
vt 0.7161 0.4923 0.2593
vt 0.7560 0.4923 -0.2593
vt 0.6762 0.6579 -0.2593
vt 0.6762 0.4923 -0.2593
# 88 texture coords

o HQ_cat_tree
g HQ_cat_tree
usemtl Material__85
s 4
f 1/1/1 2/2/2 3/3/3 4/4/4 
f 2/2/2 5/5/5 6/6/6 3/3/3 
s 8
f 7/7/7 8/8/8 2/2/2 1/1/1 
f 8/8/8 9/9/9 5/5/5 2/2/2 
s 16
f 9/10/9 10/11/10 6/6/6 5/5/5 
s 64
f 11/12/11 7/13/7 1/1/1 4/4/4 
s 4
f 12/14/1 13/15/2 14/16/12 15/17/13 
f 13/15/2 16/18/5 17/19/14 14/16/12 
s off
f 18/20/15 19/21/16 20/22/5 21/23/2 
f 15/17/13 14/16/12 22/24/17 23/25/18 
f 12/26/1 15/17/13 23/25/18 24/27/19 
f 25/28/19 18/20/15 21/23/2 26/29/1 
f 17/19/14 16/30/5 27/31/16 28/32/20 
f 14/16/12 17/19/14 28/32/20 22/24/17 
f 23/25/18 22/24/17 29/33/15 24/34/19 
f 29/33/15 22/24/17 28/32/20 27/35/16 
f 13/15/2 12/14/1 30/36/21 31/37/15 
f 12/14/1 24/38/19 32/39/22 30/36/21 
f 24/38/19 29/40/15 33/41/2 32/39/22 
f 29/40/15 27/42/16 34/43/23 33/41/2 
f 27/42/16 16/18/5 35/44/24 34/43/23 
f 16/18/5 13/15/2 31/37/15 35/44/24 
f 31/45/15 30/46/21 19/21/16 18/20/15 
f 30/47/21 32/48/22 20/22/5 19/21/16 
f 32/49/22 33/50/2 21/23/2 20/22/5 
f 33/50/2 34/51/23 26/29/1 21/23/2 
f 34/52/23 35/53/24 25/28/19 26/29/1 
f 35/54/24 31/45/15 18/20/15 25/28/19 
s 4
f 36/55/1 37/56/5 38/57/14 39/58/13 
s off
f 37/56/5 36/55/1 40/59/19 41/60/16 
f 38/57/14 37/56/5 41/61/16 42/62/20 
f 39/58/13 38/57/14 42/63/20 43/64/18 
f 36/55/1 39/58/13 43/65/18 40/66/19 
f 40/67/19 43/64/18 42/63/20 41/68/16 
usemtl Material__86
s 8
f 44/69/10 45/70/25 46/71/25 47/72/10 
f 45/73/25 48/74/26 49/75/26 46/76/25 
f 48/74/26 50/77/8 51/78/8 49/75/26 
f 50/77/8 44/69/10 47/72/10 51/78/8 
f 52/79/10 53/80/25 54/81/25 55/82/10 
f 53/83/25 56/84/26 57/85/26 54/86/25 
f 56/84/26 58/87/8 59/88/8 57/85/26 
f 58/87/8 52/79/10 55/82/10 59/88/8 
# 42 polygons

