# 3ds Max Wavefront OBJ Exporter v0.99 - (c)2007 guruware
# File Created: 20.02.2023 18:38:29

mtllib HQ_counter.mtl

#
# object HQ_counter
#

v  -1.8750 2.9300 1.8750
v  1.8750 2.9300 1.8750
v  1.8750 2.9300 -1.8750
v  -1.8750 2.9300 -1.8750
v  -1.8750 -0.0000 1.8750
v  1.8750 -0.0000 1.8750
v  1.8750 1.9141 1.8750
v  -1.8750 1.9141 1.8750
v  1.8750 -0.0000 -1.8750
v  1.8750 1.9141 -1.8750
v  -1.8750 -0.0000 -1.8750
v  -1.8750 1.9141 -1.8750
v  1.8750 2.1658 1.8750
v  -1.8750 2.1658 1.8750
v  1.8750 2.1658 -1.8750
v  -1.8750 2.1658 -1.8750
v  1.8054 2.0399 1.8750
v  -1.8750 2.0399 1.8750
v  1.8054 2.0399 -1.8750
v  -1.8750 2.0399 -1.8750
# 20 vertices

vn 0.0000 0.7071 0.7071
vn 0.5774 0.5774 0.5774
vn 0.5774 0.5774 -0.5774
vn 0.0000 0.7071 -0.7071
vn 0.0000 0.0000 1.0000
vn 0.7071 0.0000 0.7071
vn 0.7317 0.1888 0.6550
vn 0.7071 0.0000 -0.7071
vn 0.7317 0.1888 -0.6550
vn 0.0000 0.0000 -1.0000
vn 0.7317 -0.1888 0.6550
vn 0.7317 -0.1888 -0.6550
vn 0.5522 0.0000 0.8337
vn 0.5522 0.0000 -0.8337
# 14 vertex normals

vt 0.1172 0.9957 0.0000
vt 0.1172 0.5039 0.0000
vt 0.6090 0.5039 0.0000
vt 0.6090 0.9957 0.0000
vt 0.7310 0.9942 0.0000
vt 0.7275 0.5024 0.0000
vt 0.9785 0.5006 0.0000
vt 0.9820 0.9924 0.0000
vt 0.5077 0.0005 0.0000
vt 0.9995 0.0050 0.0000
vt 0.9972 0.2560 0.0000
vt 0.5054 0.2515 0.0000
vt 0.0005 0.0196 0.0000
vt 0.4919 0.0005 0.0000
vt 0.5017 0.2513 0.0000
vt 0.0102 0.2704 0.0000
vt 0.0170 0.5039 0.0000
vt 0.0170 0.9957 0.0000
vt 0.6090 0.4037 0.0000
vt 0.1172 0.4037 0.0000
vt 0.7092 0.9957 0.0000
vt 0.7092 0.5039 0.0000
vt 0.9951 0.5096 0.0000
vt 0.9985 0.9923 0.0000
vt 0.9970 0.2749 0.0000
vt 0.5052 0.2704 0.0000
vt 0.5023 0.2678 0.0000
vt 0.0200 0.2866 0.0000
vt 0.0005 0.9957 0.0000
vt 0.0005 0.5130 0.0000
vt 0.1172 0.3848 0.0000
vt 0.6090 0.3848 0.0000
vt 0.7258 0.5130 0.0000
vt 0.7258 0.9957 0.0000
# 34 texture coords

o HQ_counter
g HQ_counter
usemtl Material__24
s 1
f 1/1/1 2/2/2 3/3/3 4/4/4 
usemtl Material__26
s 2
f 5/5/5 6/6/6 7/7/7 8/8/5 
s 4
f 6/9/6 9/10/8 10/11/9 7/12/7 
s 2
f 9/13/8 11/14/10 12/15/10 10/16/9 
usemtl Material__24
f 13/17/11 2/2/2 1/1/1 14/18/5 
s 4
f 15/19/12 3/3/3 2/2/2 13/20/11 
s 2
f 16/21/10 4/4/4 3/3/3 15/22/12 
usemtl Material__26
f 8/8/5 7/7/7 17/23/13 18/24/5 
s 4
f 7/12/7 10/11/9 19/25/14 17/26/13 
s 2
f 10/16/9 12/15/10 20/27/10 19/28/14 
usemtl Material__24
f 13/17/11 14/18/5 18/29/5 17/30/13 
s 4
f 15/19/12 13/20/11 17/31/13 19/32/14 
s 2
f 16/21/10 15/22/12 19/33/14 20/34/10 
# 13 polygons

