# 3ds Max Wavefront OBJ Exporter v0.99 - (c)2007 guruware
# File Created: 20.02.2023 18:38:15

mtllib HQ_litter_box.mtl

#
# object HQ_litter_box
#

v  -2.4053 0.0354 -2.3710
v  -2.4053 0.0354 2.3710
v  2.4857 0.0354 2.3710
v  2.4857 0.0354 -2.3710
v  -1.9873 -0.0000 2.7616
v  2.1994 -0.0000 2.7616
v  2.3664 0.7234 2.9878
v  -2.3664 0.7234 2.9878
v  2.8158 -0.0000 2.1452
v  2.8158 -0.0000 -2.0667
v  3.0429 0.7234 -2.3113
v  3.0429 0.7234 2.3113
v  -3.0429 0.7234 -2.3113
v  -2.6001 0.7051 -2.4559
v  -2.3674 0.7234 -2.9878
v  -2.6001 0.7051 2.4559
v  -3.0429 0.7234 2.3113
v  2.6001 0.7051 2.4559
v  2.3664 0.7234 -2.9878
v  2.6001 0.7051 -2.4559
v  -2.6038 -0.0000 2.1452
v  2.1994 -0.0000 -2.6831
v  -1.9891 -0.0000 -2.6831
# 23 vertices

vn 0.4855 0.6803 0.5490
vn 0.4855 0.6803 -0.5490
vn -0.5265 0.6538 -0.5435
vn -0.5265 0.6538 0.5435
vn -0.2707 -0.4137 0.8693
vn 0.3371 -0.3510 0.8736
vn 0.3506 0.5040 0.7893
vn -0.4008 0.4595 0.7926
vn 0.8732 -0.3516 0.3374
vn 0.8715 -0.3789 -0.3114
vn 0.7893 0.4903 -0.3697
vn 0.7881 0.5062 0.3501
vn 0.0451 0.9989 0.0122
vn 0.2783 0.9257 0.2564
vn 0.0106 0.8974 -0.4411
vn 0.2783 0.9256 -0.2564
vn -0.3598 0.8434 0.3990
vn -0.2891 0.9152 -0.2809
vn 0.3508 0.4712 -0.8092
vn -0.2891 0.9152 0.2809
vn -0.6086 -0.5092 0.6086
vn 0.3341 -0.4303 -0.8386
vn 0.0000 -0.3881 -0.9216
# 23 vertex normals

vt 0.1974 0.7467 0.0000
vt 0.2309 0.2522 0.0000
vt 0.7296 0.2573 0.0000
vt 0.6908 0.7325 0.0000
vt 0.2133 0.0249 0.0000
vt 0.7497 0.0077 0.0000
vt 0.7743 0.1041 0.0000
vt 0.1679 0.1235 0.0000
vt 0.9584 0.2113 0.0000
vt 0.9451 0.7806 0.0000
vt 0.8418 0.8113 0.0000
vt 0.8564 0.1865 0.0000
vt 0.0783 0.7884 0.0000
vt 0.1284 0.8065 0.0000
vt 0.1558 0.8719 0.0000
vt 0.1401 0.1846 0.0000
vt 0.0856 0.2026 0.0000
vt 0.8045 0.1692 0.0000
vt 0.7540 0.8883 0.0000
vt 0.7846 0.8280 0.0000
vt 0.0328 0.1143 0.0000
vt 0.1078 0.0423 0.0000
vt 0.8446 0.0411 0.0000
vt 0.9195 0.1162 0.0000
vt 0.9070 0.8834 0.0000
vt 0.8270 0.9535 0.0000
vt 0.7302 0.9869 0.0000
vt 0.2008 0.9724 0.0000
# 28 texture coords

o HQ_litter_box
g HQ_litter_box
usemtl Material__85
s 1
f 1/1/1 2/2/2 3/3/3 4/4/4 
f 5/5/5 6/6/6 7/7/7 8/8/8 
f 9/9/9 10/10/10 11/11/11 12/12/12 
s 2
f 13/13/13 14/14/14 15/15/15 
f 8/8/8 16/16/16 17/17/17 
f 12/12/12 18/18/18 7/7/7 
f 19/19/19 20/20/20 11/11/11 
s 1
f 17/17/17 21/21/21 5/22/5 8/8/8 
f 7/7/7 6/23/6 9/24/9 12/12/12 
f 11/11/11 10/25/10 22/26/22 19/19/19 
s 2
f 14/14/14 13/13/13 17/17/17 16/16/16 
f 16/16/16 8/8/8 7/7/7 18/18/18 
f 18/18/18 12/12/12 11/11/11 20/20/20 
f 20/20/20 19/19/19 15/15/15 14/14/14 
s 1
f 19/19/19 22/27/22 23/28/23 15/15/15 
s 4
f 14/14/14 16/16/16 2/2/2 1/1/1 
s 8
f 16/16/16 18/18/18 3/3/3 2/2/2 
s 4
f 18/18/18 20/20/20 4/4/4 3/3/3 
s 8
f 20/20/20 14/14/14 1/1/1 4/4/4 
# 15 polygons - 4 triangles

