# 3ds Max Wavefront OBJ Exporter v0.99 - (c)2007 guruware
# File Created: 20.02.2023 18:40:38

mtllib HQ_tv_table.mtl

#
# object HQ_tv_table
#

v  -1.2099 1.4647 3.0157
v  -1.2099 1.4647 -3.0157
v  -1.2099 -0.0000 -3.0157
v  -1.2099 -0.0000 3.0157
v  1.2099 1.4647 3.0157
v  1.2099 1.4647 -3.0157
v  1.2099 -0.0000 -3.0157
v  1.2099 -0.0000 3.0157
v  -0.2099 3.8853 -2.0157
v  -0.2099 3.8853 2.0157
v  0.2099 3.8853 2.0157
v  0.2099 3.8853 -2.0157
v  -0.2099 1.5845 -1.8959
v  -0.2099 1.5845 1.8959
v  -0.2099 3.7655 1.8959
v  -0.2099 3.7655 -1.8959
v  -0.2099 1.4647 2.0157
v  0.5705 1.4647 1.6444
v  0.5705 1.4647 -1.6444
v  -0.2099 1.4647 -2.0157
# 20 vertices

vn -0.5774 0.5774 0.5774
vn -0.5774 0.5774 -0.5774
vn -0.7071 0.0000 -0.7071
vn -0.7071 0.0000 0.7071
vn 0.0000 0.7071 0.7071
vn -0.0000 0.7071 -0.7071
vn 0.0000 -0.0000 -1.0000
vn -0.0000 0.0000 1.0000
vn -0.5774 0.5773 -0.5773
vn 0.5249 0.5678 0.6341
vn 0.5249 0.5678 -0.6341
vn -1.0000 0.0000 -0.0000
vn -0.5340 0.0000 0.8455
vn 0.8785 0.0581 0.4742
vn 0.8785 0.0581 -0.4742
vn -0.5340 0.0000 -0.8455
# 16 vertex normals

vt 0.1454 0.2318 0.0000
vt 0.1458 0.7639 0.0000
vt 0.0166 0.7640 0.0000
vt 0.0162 0.2319 0.0000
vt 0.3589 0.2317 0.0000
vt 0.3592 0.7637 0.0000
vt 0.1459 0.9773 0.0000
vt 0.0167 0.9774 0.0000
vt 0.0161 0.0185 0.0000
vt 0.1453 0.0184 0.0000
vt 0.4352 0.3016 0.0000
vt 0.8988 0.2937 0.0000
vt 0.8996 0.3419 0.0000
vt 0.4361 0.3499 0.0000
vt 0.4445 0.0368 0.0000
vt 0.8805 0.0293 0.0000
vt 0.8848 0.2801 0.0000
vt 0.4488 0.2876 0.0000
vt 0.8940 0.0153 0.0000
vt 0.9933 0.0119 0.0000
vt 0.9471 0.2928 0.0000
vt 0.8617 0.6241 0.0000
vt 0.4836 0.6306 0.0000
vt 0.3311 0.0233 0.0000
vt 0.4305 0.0233 0.0000
vt 0.3870 0.3024 0.0000
# 26 texture coords

o HQ_tv_table
g HQ_tv_table
usemtl Material__26
s 16
f 1/1/1 2/2/2 3/3/3 4/4/4 
s off
f 2/2/2 1/1/1 5/5/5 6/6/6 
f 3/3/3 2/2/2 6/7/6 7/8/7 
f 1/1/1 4/4/4 8/9/8 5/10/5 
usemtl Material__50
f 9/11/9 10/12/1 11/13/10 12/14/11 
usemtl Material__73
f 13/15/12 14/16/12 15/17/12 16/18/12 
usemtl Material__50
f 17/19/13 18/20/14 11/21/10 10/12/1 
f 18/22/14 19/23/15 12/14/11 11/13/10 
f 19/24/15 20/25/16 9/11/9 12/26/11 
f 20/25/16 17/19/13 14/16/12 13/15/12 
f 17/19/13 10/12/1 15/17/12 14/16/12 
f 10/12/1 9/11/9 16/18/12 15/17/12 
f 9/11/9 20/25/16 13/15/12 16/18/12 
# 13 polygons

